<svg width="298" height="155" viewBox="0 0 298 155" fill="none" xmlns="http://www.w3.org/2000/svg">
<path d="M144.875 88.5H151.125V109H175.938V88.5H227.375C226.25 83.7083 224.792 78.8125 223 73.8125C221.208 68.8125 219.188 63.875 216.938 59C214.646 54.125 212.167 49.3542 209.5 44.6875C206.833 40.0208 204.042 35.625 201.125 31.5H183.812C187.396 37.4583 190.396 43.1667 192.812 48.625C195.188 54.0833 197.104 58.9375 198.562 63.1875C200.271 68.1458 201.604 72.7708 202.562 77.0625H175.938V19H151.125V77.0625H144.875V88.5Z" fill="black"/>
<path d="M60.45 142.24C58.39 142.24 56.64 141.85 55.2 141.07L56.13 138.55C56.79 138.87 57.5 139.12 58.26 139.3C59.02 139.48 59.77 139.57 60.51 139.57C61.45 139.57 62.23 139.51 62.85 139.39C63.01 139.07 63.09 138.67 63.09 138.19C63.09 137.81 63.02 137.52 62.88 137.32C62.76 137.1 62.52 136.92 62.16 136.78C61.8 136.62 61.24 136.46 60.48 136.3C59.3 136.04 58.34 135.75 57.6 135.43C56.88 135.11 56.31 134.67 55.89 134.11C55.49 133.55 55.29 132.81 55.29 131.89C55.29 130.65 55.76 129.63 56.7 128.83C57.64 128.01 59.05 127.6 60.93 127.6C62.75 127.6 64.3 127.93 65.58 128.59V129.55C65.58 129.91 65.54 130.34 65.46 130.84C65.4 131.32 65.31 131.7 65.19 131.98H62.73L62.49 130.24C61.85 130.16 61.27 130.12 60.75 130.12C59.91 130.12 59.31 130.24 58.95 130.48C58.61 130.72 58.44 131.12 58.44 131.68C58.44 132.22 58.65 132.64 59.07 132.94C59.51 133.24 60.29 133.5 61.41 133.72C62.57 133.96 63.48 134.23 64.14 134.53C64.8 134.81 65.31 135.23 65.67 135.79C66.03 136.33 66.21 137.06 66.21 137.98C66.21 139.26 65.74 140.29 64.8 141.07C63.86 141.85 62.41 142.24 60.45 142.24ZM83.3159 142.27C82.3959 142.27 81.5459 142.16 80.7659 141.94C80.1059 141.54 79.5459 141.08 79.0859 140.56C78.6259 140.02 78.3959 139.44 78.3959 138.82V130.54H75.7859L76.1759 127.87H78.3959V124.12H81.5459V127.87H86.2559L85.8659 130.54H81.5459V137.77C81.5459 138.19 81.6259 138.62 81.7859 139.06C82.2659 139.22 82.7359 139.3 83.1959 139.3C83.5959 139.3 84.0459 139.24 84.5459 139.12C85.0459 139 85.5059 138.84 85.9259 138.64L86.5859 141.4C86.1459 141.64 85.6359 141.84 85.0559 142C84.4959 142.18 83.9159 142.27 83.3159 142.27ZM101.235 142.24C99.8355 142.24 98.7955 141.91 98.1155 141.25C97.4555 140.59 97.1255 139.52 97.1255 138.04V127.87H100.365V139.09C100.925 139.25 101.525 139.33 102.165 139.33C103.805 139.33 105.085 138.81 106.005 137.77V127.87H109.245V142H106.395L106.215 139.84H105.975C105.315 140.62 104.615 141.22 103.875 141.64C103.135 142.04 102.255 142.24 101.235 142.24ZM125.988 142.24C124.088 142.24 122.698 141.62 121.818 140.38C120.958 139.14 120.528 137.33 120.528 134.95C120.528 132.89 120.958 131.16 121.818 129.76C122.678 128.36 124.028 127.66 125.868 127.66C126.788 127.66 127.598 127.83 128.298 128.17C128.998 128.49 129.638 128.96 130.218 129.58H130.398L130.248 127.3V121.87H133.488V142H130.518L130.398 140.08H130.158C129.658 140.76 129.078 141.29 128.418 141.67C127.778 142.05 126.968 142.24 125.988 142.24ZM126.888 139.36C127.668 139.36 128.338 139.18 128.898 138.82C129.458 138.46 129.908 137.99 130.248 137.41V132.01C129.748 131.51 129.228 131.14 128.688 130.9C128.148 130.66 127.528 130.54 126.828 130.54C125.808 130.54 125.058 130.91 124.578 131.65C124.118 132.37 123.888 133.5 123.888 135.04C123.888 136.6 124.098 137.71 124.518 138.37C124.958 139.03 125.748 139.36 126.888 139.36ZM145.454 122.17H148.784V125.59H145.454V122.17ZM145.514 127.87H148.694V142H145.514V127.87ZM166.244 142.24C164.044 142.24 162.454 141.63 161.474 140.41C160.514 139.17 160.034 137.41 160.034 135.13C160.034 132.79 160.614 130.95 161.774 129.61C162.954 128.25 164.704 127.57 167.024 127.57C171.164 127.57 173.234 130.02 173.234 134.92C173.234 139.8 170.904 142.24 166.244 142.24ZM166.874 139.51C167.874 139.51 168.734 139.37 169.454 139.09C169.854 138.19 170.054 136.93 170.054 135.31C170.054 134.09 169.954 133.13 169.754 132.43C169.574 131.73 169.214 131.22 168.674 130.9C168.154 130.56 167.394 130.39 166.394 130.39C165.394 130.39 164.534 130.53 163.814 130.81C163.414 131.73 163.214 133.06 163.214 134.8C163.214 136 163.314 136.93 163.514 137.59C163.714 138.25 164.074 138.74 164.594 139.06C165.114 139.36 165.874 139.51 166.874 139.51Z" fill="black"/>
<path d="M84.125 88.4999H77.875V109H53.0625V88.4999H1.625C2.75 83.7083 4.20833 78.8124 6 73.8124C7.79167 68.8124 9.8125 63.8749 12.0625 58.9999C14.3542 54.1249 16.8333 49.3541 19.5 44.6874C22.1667 40.0208 24.9583 35.6249 27.875 31.4999H45.1875C41.6042 37.4583 38.6042 43.1666 36.1875 48.6249C33.8125 54.0833 31.8958 58.9374 30.4375 63.1874C28.7292 68.1458 27.3958 72.7708 26.4375 77.0624H53.0625V18.9999H77.875V77.0624H84.125V88.4999Z" fill="black"/>
<path d="M114.5 48.9999C131.897 48.9999 146 63.103 146 80.4999C146 97.8969 131.897 112 114.5 112C97.103 112 83 97.8969 83 80.4999C83 63.103 97.103 48.9999 114.5 48.9999Z" fill="black"/>
<path d="M107.5 53.9999C121.031 53.9999 132 65.8644 132 80.4999C132 95.1355 121.031 107 107.5 107C93.969 107 83 95.1355 83 80.4999C83 65.8644 93.969 53.9999 107.5 53.9999Z" fill="black"/>
<path d="M109 59.9999C120.598 59.9999 130 69.1781 130 80.4999C130 91.8218 120.598 101 109 101C97.402 101 88 91.8218 88 80.4999C88 69.1781 97.402 59.9999 109 59.9999Z" fill="white"/>
</svg>
