<svg width="24" height="24" viewBox="0 0 24 24" fill="none" xmlns="http://www.w3.org/2000/svg">
<path fill-rule="evenodd" clip-rule="evenodd" d="M20.34 8.2H20.72C21.3074 8.1774 21.803 8.63283 21.83 9.22V13.8C21.7925 14.3792 21.3 14.8229 20.72 14.8H20.31C19.9298 16.6627 18.2911 18.0004 16.39 18H7C4.79086 18 3 16.2091 3 14V9C3 6.79086 4.79086 5 7 5H16.42C18.3211 4.99961 19.9598 6.33734 20.34 8.2ZM7.69 14.26C8.10421 14.26 8.44 13.9242 8.44 13.51V9.51C8.44 9.09579 8.10421 8.76 7.69 8.76C7.27579 8.76 6.94 9.09579 6.94 9.51V13.51C6.94 13.9242 7.27579 14.26 7.69 14.26ZM12.44 13.51C12.44 13.9242 12.1042 14.26 11.69 14.26C11.2758 14.26 10.94 13.9242 10.94 13.51V9.51C10.94 9.09579 11.2758 8.76 11.69 8.76C12.1042 8.76 12.44 9.09579 12.44 9.51V13.51ZM15.69 14.26C16.1042 14.26 16.44 13.9242 16.44 13.51V9.51C16.44 9.09579 16.1042 8.76 15.69 8.76C15.2758 8.76 14.94 9.09579 14.94 9.51V13.51C14.94 13.9242 15.2758 14.26 15.69 14.26Z" fill="white"/>
</svg>
