<svg width="291" height="113" viewBox="0 0 291 113" fill="none" xmlns="http://www.w3.org/2000/svg">
<path d="M123.277 68.9844H128.16V85H147.545V68.9844H187.73C186.852 65.2409 185.712 61.416 184.312 57.5098C182.913 53.6035 181.334 49.7461 179.576 45.9375C177.786 42.1289 175.849 38.4017 173.766 34.7559C171.682 31.11 169.501 27.6758 167.223 24.4531H153.697C156.497 29.1081 158.84 33.5677 160.729 37.832C162.584 42.0964 164.081 45.8887 165.221 49.209C166.555 53.0827 167.597 56.696 168.346 60.0488H147.545V14.6875H128.16V60.0488H123.277V68.9844Z" fill="black"/>
<path d="M58.084 103.396C58.084 103.891 58.0124 104.331 57.8691 104.715C57.7259 105.099 57.5306 105.434 57.2832 105.721C57.0358 106.001 56.7428 106.238 56.4043 106.434C56.0658 106.622 55.7012 106.775 55.3105 106.893C54.9264 107.01 54.5228 107.094 54.0996 107.146C53.6764 107.199 53.2565 107.225 52.8398 107.225C52.2799 107.225 51.7852 107.189 51.3555 107.117C50.9258 107.046 50.5156 106.932 50.125 106.775C49.7344 106.613 49.3438 106.404 48.9531 106.15C48.569 105.896 48.1393 105.587 47.6641 105.223L49.5879 103.65C49.7637 103.982 49.9948 104.285 50.2812 104.559C50.5742 104.826 50.877 105.057 51.1895 105.252C51.502 105.447 51.8047 105.597 52.0977 105.701C52.3906 105.805 52.6283 105.857 52.8105 105.857C52.9603 105.857 53.1296 105.854 53.3184 105.848C53.5072 105.835 53.6992 105.815 53.8945 105.789C54.0898 105.757 54.2819 105.711 54.4707 105.652C54.6595 105.594 54.8255 105.516 54.9688 105.418C55.1185 105.314 55.2357 105.187 55.3203 105.037C55.4115 104.881 55.457 104.695 55.457 104.48C55.457 104.259 55.3984 104.067 55.2812 103.904C55.1706 103.735 55.0241 103.589 54.8418 103.465C54.6595 103.341 54.4512 103.237 54.2168 103.152C53.9824 103.068 53.7448 102.993 53.5039 102.928C53.2695 102.863 53.0417 102.807 52.8203 102.762C52.599 102.71 52.4069 102.661 52.2441 102.615C51.9447 102.531 51.6289 102.446 51.2969 102.361C50.9648 102.27 50.6361 102.169 50.3105 102.059C49.985 101.941 49.6725 101.805 49.373 101.648C49.0801 101.492 48.8197 101.307 48.5918 101.092C48.3704 100.87 48.1914 100.613 48.0547 100.32C47.9245 100.021 47.8594 99.6725 47.8594 99.2754C47.8594 98.5462 48.0026 97.9375 48.2891 97.4492C48.582 96.9544 48.9661 96.5605 49.4414 96.2676C49.9167 95.9681 50.457 95.7565 51.0625 95.6328C51.668 95.5091 52.2832 95.4473 52.9082 95.4473C53.3379 95.4473 53.7904 95.4928 54.2656 95.584C54.7409 95.6686 55.2031 95.7988 55.6523 95.9746C56.1016 96.1439 56.5215 96.3522 56.9121 96.5996C57.3027 96.847 57.6283 97.1302 57.8887 97.4492L55.9648 99.0312C55.8216 98.6406 55.6328 98.3053 55.3984 98.0254C55.1706 97.7454 54.9199 97.5176 54.6465 97.3418C54.3796 97.1595 54.1029 97.026 53.8164 96.9414C53.5365 96.8568 53.276 96.8145 53.0352 96.8145C52.8008 96.8145 52.5371 96.8242 52.2441 96.8438C51.9512 96.8633 51.6745 96.9186 51.4141 97.0098C51.1602 97.1009 50.9421 97.2409 50.7598 97.4297C50.584 97.612 50.4961 97.8659 50.4961 98.1914C50.4961 98.4258 50.5482 98.6276 50.6523 98.7969C50.763 98.9596 50.9062 99.1029 51.082 99.2266C51.2578 99.3438 51.4564 99.4447 51.6777 99.5293C51.9056 99.6074 52.1367 99.679 52.3711 99.7441C52.6055 99.8027 52.8333 99.8548 53.0547 99.9004C53.276 99.946 53.4746 99.9948 53.6504 100.047C53.9499 100.132 54.2656 100.219 54.5977 100.311C54.9362 100.395 55.2682 100.496 55.5938 100.613C55.9193 100.724 56.2318 100.857 56.5312 101.014C56.8372 101.163 57.1042 101.349 57.332 101.57C57.5599 101.792 57.7422 102.052 57.8789 102.352C58.0156 102.645 58.084 102.993 58.084 103.396ZM69.6219 107H66.3113V97.0293H64.2605V95.7207H66.3113V91.5703H69.6219V95.7207H73.0398V97.0293H69.6219V107ZM78.9234 102.176C78.9234 101.661 78.9658 101.128 79.0504 100.574C79.1415 100.021 79.2685 99.4674 79.4312 98.9141C79.6005 98.3607 79.8023 97.8138 80.0367 97.2734C80.2711 96.7331 80.5348 96.2155 80.8277 95.7207H83.2398C83.0771 96.209 82.9306 96.7201 82.8004 97.2539C82.6767 97.7812 82.5693 98.3118 82.4781 98.8457C82.3935 99.373 82.3251 99.8906 82.273 100.398C82.2275 100.906 82.2047 101.378 82.2047 101.814C82.2047 102.068 82.2145 102.342 82.234 102.635C82.26 102.921 82.3023 103.211 82.3609 103.504C82.4195 103.79 82.5009 104.067 82.6051 104.334C82.7158 104.601 82.8557 104.839 83.025 105.047C83.1943 105.249 83.3993 105.411 83.6402 105.535C83.8876 105.652 84.1773 105.711 84.5094 105.711C84.8349 105.711 85.1246 105.639 85.3785 105.496C85.6389 105.346 85.8668 105.154 86.0621 104.92C86.2574 104.679 86.4234 104.406 86.5602 104.1C86.6969 103.794 86.8076 103.481 86.8922 103.162C86.9833 102.837 87.0484 102.521 87.0875 102.215C87.1331 101.902 87.1559 101.622 87.1559 101.375V95.7207H90.4566V107H89.1871L87.6734 104.373C87.4846 104.809 87.2535 105.206 86.9801 105.564C86.7132 105.916 86.4072 106.219 86.0621 106.473C85.7171 106.727 85.3329 106.922 84.9098 107.059C84.4931 107.195 84.0406 107.264 83.5523 107.264C82.7711 107.264 82.0908 107.137 81.5113 106.883C80.9319 106.629 80.4501 106.277 80.066 105.828C79.6819 105.379 79.3954 104.845 79.2066 104.227C79.0178 103.602 78.9234 102.918 78.9234 102.176ZM109.778 107H108.508L107.043 104.549C106.9 104.959 106.702 105.33 106.448 105.662C106.2 105.994 105.911 106.281 105.579 106.521C105.253 106.756 104.892 106.938 104.495 107.068C104.104 107.199 103.69 107.264 103.254 107.264C102.395 107.264 101.627 107.111 100.95 106.805C100.273 106.499 99.6996 106.082 99.2309 105.555C98.7621 105.021 98.404 104.396 98.1566 103.68C97.9092 102.964 97.7855 102.195 97.7855 101.375C97.7855 100.555 97.9092 99.7865 98.1566 99.0703C98.404 98.3542 98.7621 97.7324 99.2309 97.2051C99.6996 96.6777 100.273 96.2611 100.95 95.9551C101.627 95.6491 102.395 95.4961 103.254 95.4961C103.912 95.4961 104.514 95.623 105.061 95.877C105.614 96.1309 106.086 96.528 106.477 97.0684V91.5703H109.778V107ZM106.457 101.375C106.457 101.115 106.438 100.828 106.399 100.516C106.36 100.203 106.298 99.8874 106.213 99.5684C106.129 99.2493 106.018 98.9401 105.881 98.6406C105.745 98.3411 105.575 98.0742 105.373 97.8398C105.178 97.6055 104.947 97.4199 104.68 97.2832C104.42 97.14 104.12 97.0684 103.782 97.0684C103.411 97.0684 103.088 97.1367 102.815 97.2734C102.541 97.4036 102.307 97.5827 102.112 97.8105C101.916 98.0319 101.754 98.2891 101.623 98.582C101.5 98.875 101.402 99.181 101.33 99.5C101.259 99.819 101.207 100.141 101.174 100.467C101.148 100.786 101.135 101.089 101.135 101.375C101.135 101.661 101.148 101.967 101.174 102.293C101.207 102.612 101.259 102.931 101.33 103.25C101.402 103.569 101.5 103.878 101.623 104.178C101.754 104.471 101.916 104.731 102.112 104.959C102.307 105.18 102.541 105.359 102.815 105.496C103.088 105.626 103.411 105.691 103.782 105.691C104.153 105.691 104.478 105.626 104.758 105.496C105.038 105.366 105.276 105.19 105.471 104.969C105.673 104.741 105.836 104.484 105.959 104.197C106.09 103.904 106.19 103.598 106.262 103.279C106.334 102.954 106.383 102.628 106.409 102.303C106.441 101.977 106.457 101.668 106.457 101.375ZM121.198 92.9961C121.198 93.2435 121.15 93.4779 121.052 93.6992C120.961 93.9206 120.834 94.1126 120.671 94.2754C120.508 94.4382 120.316 94.5684 120.095 94.666C119.874 94.7572 119.639 94.8027 119.392 94.8027C119.144 94.8027 118.91 94.7572 118.689 94.666C118.474 94.5684 118.285 94.4382 118.122 94.2754C117.96 94.1126 117.829 93.9206 117.732 93.6992C117.64 93.4779 117.595 93.2435 117.595 92.9961C117.595 92.7487 117.64 92.5176 117.732 92.3027C117.829 92.0814 117.96 91.8893 118.122 91.7266C118.285 91.5638 118.474 91.4368 118.689 91.3457C118.91 91.248 119.144 91.1992 119.392 91.1992C119.639 91.1992 119.874 91.248 120.095 91.3457C120.316 91.4368 120.508 91.5638 120.671 91.7266C120.834 91.8893 120.961 92.0814 121.052 92.3027C121.15 92.5176 121.198 92.7487 121.198 92.9961ZM121.052 107H117.741V95.7305H121.052V107ZM140.939 101.336C140.939 101.922 140.861 102.472 140.705 102.986C140.549 103.501 140.331 103.976 140.051 104.412C139.777 104.848 139.445 105.242 139.055 105.594C138.664 105.939 138.234 106.232 137.766 106.473C137.303 106.714 136.805 106.899 136.271 107.029C135.744 107.16 135.201 107.225 134.641 107.225C134.081 107.225 133.537 107.16 133.01 107.029C132.482 106.899 131.984 106.714 131.516 106.473C131.053 106.232 130.627 105.939 130.236 105.594C129.846 105.242 129.51 104.848 129.23 104.412C128.957 103.976 128.742 103.501 128.586 102.986C128.43 102.465 128.352 101.915 128.352 101.336C128.352 100.757 128.43 100.21 128.586 99.6953C128.742 99.1745 128.957 98.696 129.23 98.2598C129.51 97.8236 129.846 97.4329 130.236 97.0879C130.627 96.7363 131.053 96.4401 131.516 96.1992C131.984 95.9583 132.482 95.7728 133.01 95.6426C133.537 95.5124 134.081 95.4473 134.641 95.4473C135.201 95.4473 135.744 95.5124 136.271 95.6426C136.805 95.7728 137.303 95.9583 137.766 96.1992C138.234 96.4401 138.664 96.7363 139.055 97.0879C139.445 97.4329 139.777 97.8236 140.051 98.2598C140.331 98.696 140.549 99.1745 140.705 99.6953C140.861 100.21 140.939 100.757 140.939 101.336ZM137.58 101.336C137.58 101.023 137.561 100.695 137.521 100.35C137.489 99.998 137.43 99.6562 137.346 99.3242C137.261 98.9857 137.144 98.6634 136.994 98.3574C136.851 98.0449 136.672 97.7747 136.457 97.5469C136.242 97.3125 135.985 97.127 135.686 96.9902C135.386 96.847 135.038 96.7754 134.641 96.7754C134.263 96.7754 133.928 96.847 133.635 96.9902C133.342 97.1335 133.085 97.3255 132.863 97.5664C132.648 97.8008 132.466 98.0742 132.316 98.3867C132.173 98.6992 132.056 99.0247 131.965 99.3633C131.874 99.6953 131.809 100.034 131.77 100.379C131.73 100.717 131.711 101.036 131.711 101.336C131.711 101.635 131.73 101.958 131.77 102.303C131.809 102.641 131.874 102.98 131.965 103.318C132.056 103.657 132.173 103.982 132.316 104.295C132.466 104.601 132.648 104.874 132.863 105.115C133.085 105.35 133.342 105.538 133.635 105.682C133.928 105.825 134.263 105.896 134.641 105.896C135.031 105.896 135.376 105.828 135.676 105.691C135.975 105.548 136.232 105.359 136.447 105.125C136.669 104.891 136.851 104.62 136.994 104.314C137.137 104.008 137.251 103.686 137.336 103.348C137.427 103.009 137.489 102.667 137.521 102.322C137.561 101.977 137.58 101.648 137.58 101.336Z" fill="#45474B"/>
<path d="M65.7227 68.9844H60.8398V85H41.4551V68.9844H1.26953C2.14844 65.2409 3.28776 61.416 4.6875 57.5098C6.08724 53.6035 7.66602 49.7461 9.42383 45.9375C11.2142 42.1289 13.151 38.4017 15.2344 34.7559C17.3177 31.11 19.4987 27.6758 21.7773 24.4531H35.3027C32.5033 29.1081 30.1595 33.5677 28.2715 37.832C26.416 42.0964 24.9186 45.8887 23.7793 49.209C22.4447 53.0827 21.403 56.696 20.6543 60.0488H41.4551V14.6875H60.8398V60.0488H65.7227V68.9844Z" fill="black"/>
<path fill-rule="evenodd" clip-rule="evenodd" d="M126 42.4999C126 25.103 111.897 10.9999 94.5 10.9999C77.103 10.9999 63 25.103 63 42.4999C63 59.8969 77.103 73.9999 94.5 73.9999C111.897 73.9999 126 59.8969 126 42.4999ZM87 60.9999C97.4934 60.9999 106 52.4933 106 41.9999C106 31.5065 97.4934 22.9999 87 22.9999C76.5066 22.9999 68 31.5065 68 41.9999C68 52.4933 76.5066 60.9999 87 60.9999Z" fill="black"/>
</svg>
