<svg width="24" height="24" viewBox="0 0 24 24" fill="none" xmlns="http://www.w3.org/2000/svg">
<path fill-rule="evenodd" clip-rule="evenodd" d="M11.0201 16.7904V8.07037C11.0868 7.03011 10.7256 6.00775 10.0201 5.24037C9.25212 4.43457 8.18311 3.98523 7.07008 4.00037C4.83609 3.98656 3.01389 5.78638 3.00008 8.02037C2.98627 10.2544 4.78609 12.0766 7.02008 12.0904V16.7104C6.91144 17.2204 7.02807 17.7525 7.34008 18.1704C7.72781 18.7085 8.3571 19.0194 9.02008 19.0004C9.6303 19.0065 10.2121 18.743 10.6101 18.2804C10.9409 17.8587 11.0886 17.3219 11.0201 16.7904ZM5.32008 8.11037C5.47247 8.23688 5.56779 8.41921 5.58471 8.61655C5.60162 8.81389 5.53872 9.00977 5.41008 9.16037C5.15167 9.44513 4.71976 9.48832 4.41008 9.26037C4.02667 8.97411 3.79472 8.52863 3.78008 8.05037C3.79024 7.57095 4.02315 7.12362 4.41008 6.84037C4.7159 6.60506 5.15119 6.64424 5.41008 6.93037C5.53928 7.08263 5.60243 7.28012 5.58554 7.47909C5.56864 7.67806 5.4731 7.86208 5.32008 7.99037L5.25008 8.05037L5.32008 8.11037Z" fill="white"/>
<path fill-rule="evenodd" clip-rule="evenodd" d="M17.0202 12.0904C19.2541 12.0904 21.0652 10.2794 21.0652 8.04537C21.0652 5.81138 19.2541 4.00037 17.0202 4.00037C15.9245 3.99907 14.8762 4.44729 14.1202 5.24037C13.3782 5.99121 12.9801 7.01558 13.0202 8.07037V16.7904C12.9683 17.3302 13.138 17.868 13.4902 18.2804C13.8842 18.7426 14.4628 19.0063 15.0702 19.0004C15.7102 19.0099 16.3162 18.7125 16.7002 18.2004C17.0159 17.7842 17.1329 17.2504 17.0202 16.7404V12.0904ZM18.6202 7.99037C18.4671 7.86208 18.3716 7.67806 18.3547 7.47909C18.3378 7.28012 18.401 7.08263 18.5302 6.93037C18.789 6.64424 19.2243 6.60506 19.5302 6.84037C19.9171 7.12362 20.15 7.57095 20.1602 8.05037C20.1455 8.52863 19.9136 8.97411 19.5302 9.26037C19.2205 9.48832 18.7886 9.44513 18.5302 9.16037C18.4015 9.00977 18.3386 8.81389 18.3555 8.61655C18.3724 8.41921 18.4678 8.23688 18.6202 8.11037L18.6902 8.04037L18.6202 7.99037Z" fill="white"/>
</svg>
