<svg xmlns="http://www.w3.org/2000/svg" fill="none" viewBox="0 0 14 14" id="Video-Camera--Streamline-Core.svg"><desc>Video Camera Streamline Icon: https://streamlinehq.com</desc><g id="video-camera--wireless-wifi-internet-server-network-smart-control-video-camera-connection"><path id="Union" fill="#ffffff" fill-rule="evenodd" d="M8.95996 0.75c0 -0.414214 0.33579 -0.75 0.75 -0.75C10.8478 0 11.939 0.451989 12.7435 1.25653 13.548 2.06108 14 3.15228 14 4.29007c0 0.41422 -0.3358 0.75 -0.75 0.75s-0.75 -0.33578 -0.75 -0.75c0 -0.73997 -0.2939 -1.44964 -0.8172 -1.97288C11.1596 1.79395 10.4499 1.5 9.70996 1.5c-0.41421 0 -0.75 -0.33579 -0.75 -0.75Zm-0.25 2.46228c0 -0.41421 0.33579 -0.75 0.75 -0.75 0.55104 0 1.07944 0.21888 1.46904 0.60849 0.3896 0.38962 0.6085 0.91804 0.6085 1.46904 0 0.41421 -0.3358 0.75 -0.75 0.75s-0.75 -0.33579 -0.75 -0.75c0 -0.15317 -0.06086 -0.30007 -0.16917 -0.40838 -0.1083 -0.1083 -0.2552 -0.16915 -0.40837 -0.16915 -0.41421 0 -0.75 -0.33579 -0.75 -0.75ZM0 6.5C0 5.67919 0.679191 5 1.5 5h6C8.32081 5 9 5.67919 9 6.5v0.66265l1.5828 -0.85282 0.014 -0.00724c0.3638 -0.18149 0.7344 -0.08142 0.9793 0.1 0.2373 0.17581 0.4239 0.47307 0.4239 0.81741v4.56c0 0.6905 -0.701 1.1908 -1.36 0.9365 -0.0196 -0.0076 -0.0387 -0.0164 -0.0572 -0.0263L9 11.8374V12.5c0 0.3978 -0.15804 0.7794 -0.43934 1.0607S7.89783 14 7.5 14h-6c-0.39783 0 -0.779356 -0.158 -1.06066 -0.4393C0.158035 13.2794 0 12.8978 0 12.5v-6Z" clip-rule="evenodd" stroke-width="1"></path></g></svg>